# xmcd
#
# Track frame offsets: 
#        150
#        37048
#        54034
#        75640
#        91971
#        116379
#        131744
#        165742
#        183632
#
# Disc length: 2839 seconds
#
# Revision: 3
# Processed by: cddbd v1.5.2PL0 Copyright (c) Steve Scherf et al.
# Submitted via: ExactAudioCopyFreeDBPlugin 1.0
#
DISCID=6d0b1509
DTITLE=Calexico - Feast Of Wire (2010 Deluxe 2CD) CD 2
DYEAR=2003
DGENRE=Americana
TTITLE0=Black Heart (Jazzanovas White Soul Dub)
TTITLE1=Attack! El Robot! Attack! (...And How He Lost RMX by Wechsel G
TTITLE1=arland)
TTITLE2=Güero Canelo (Nortex Mix by Panoptica)
TTITLE3=Quattro (Gotan Project Remix)
TTITLE4=Pepita (Iso68 Remix)
TTITLE5=Alone Again Or
TTITLE6=Woven Birds (Cinematic Orchestra Remixico)
TTITLE7=Convict Pool
TTITLE8=Woven Birds (Stratus RMX)
EXTD=
EXTT0=
EXTT1=
EXTT2=
EXTT3=
EXTT4=
EXTT5=
EXTT6=
EXTT7=
EXTT8=
PLAYORDER=
